<?xml version="1.0" encoding="UTF-8" standalone="no"?>
<!-- Created with Inkscape (http://www.inkscape.org/) -->

<svg
   width="24.079645mm"
   height="27.805019mm"
   viewBox="0 0 24.079645 27.805019"
   version="1.1"
   id="svg5"
   inkscape:version="1.1.1 (3bf5ae0d25, 2021-09-20)"
   sodipodi:docname="landat.svg"
   xmlns:inkscape="http://www.inkscape.org/namespaces/inkscape"
   xmlns:sodipodi="http://sodipodi.sourceforge.net/DTD/sodipodi-0.dtd"
   xmlns="http://www.w3.org/2000/svg"
   xmlns:svg="http://www.w3.org/2000/svg">
  <sodipodi:namedview
     id="namedview7"
     pagecolor="#8c8c8c"
     bordercolor="#ffffff"
     borderopacity="1"
     inkscape:pageshadow="0"
     inkscape:pageopacity="0"
     inkscape:pagecheckerboard="true"
     inkscape:document-units="mm"
     showgrid="false"
     fit-margin-top="0"
     fit-margin-left="0"
     fit-margin-right="0"
     fit-margin-bottom="0"
     borderlayer="false"
     showborder="true"
     inkscape:zoom="4"
     inkscape:cx="37.875"
     inkscape:cy="55.625"
     inkscape:window-width="1366"
     inkscape:window-height="705"
     inkscape:window-x="-8"
     inkscape:window-y="-8"
     inkscape:window-maximized="1"
     inkscape:current-layer="layer1" />
  <defs
     id="defs2" />
  <g
     inkscape:label="Capa 1"
     inkscape:groupmode="layer"
     id="layer1"
     transform="translate(-80.124384,-109.68314)">
    <path
       id="path13034"
       style="display:inline;fill:#333333;fill-opacity:1;stroke:none;stroke-width:0.264583px;stroke-linecap:butt;stroke-linejoin:miter;stroke-opacity:1"
       d="m 92.164464,109.68314 -12.04008,6.951 v 13.90251 l 12.04008,6.95151 12.039566,-6.95151 v -13.90251 z m -2.80292,5.95313 h 5.1e-4 c 0.0219,2.9e-4 0.0422,0.005 0.061,0.0155 0.053,0.0319 0.0922,0.0684 0.11629,0.11007 l 2.92486,5.06635 c 0.0174,0.0201 0.0341,0.0429 0.0496,0.0698 l 4.48347,7.76646 c 0.0722,0.125 0.13213,0.22227 0.17981,0.29197 0.0492,0.0619 0.10152,0.10473 0.15711,0.12816 0.0575,0.0153 0.12819,0.006 0.21238,-0.0289 0.084,-0.0351 0.19635,-0.093 0.33695,-0.17416 l 0.77359,-0.44648 c 0.41669,-0.24057 0.74948,-0.44635 0.99787,-0.61753 0.25363,-0.1742 0.440006,-0.3688 0.559146,-0.58343 0.11914,-0.21466 0.18401,-0.47467 0.19531,-0.7798 0.0113,-0.30515 -0.0143,-0.71044 -0.077,-1.21594 l 0.44029,-0.13953 c 0.021,0.0364 0.0634,0.14023 0.12764,0.31161 0.0643,0.17126 0.1343,0.37065 0.20981,0.5979 0.0809,0.22414 0.15976,0.45646 0.23617,0.69711 0.0764,0.24065 0.13591,0.45234 0.17931,0.63562 0.0345,0.21621 -0.042,0.37856 -0.22945,0.48679 -0.39389,0.21994 -0.88376,0.49606 -1.469676,0.82838 -0.5814,0.32819 -1.28082,0.72831 -2.09857,1.20044 l -1.29709,0.74879 c -0.0729,0.0421 -0.13439,0.0498 -0.18447,0.0233 -0.0532,-0.0317 -0.0916,-0.0683 -0.11576,-0.11007 l -3.7202,-6.44353 -0.004,0.008 -0.70745,-1.22525 -0.44751,0.62942 0.008,0.001 -0.57152,0.80408 0.005,0.0119 -4.43281,6.24303 c -0.0278,0.0392 -0.0704,0.0716 -0.12607,0.0982 -0.0266,0.0106 -0.0542,0.0122 -0.0842,0.006 l -0.001,0.002 c -0.0304,-0.007 -0.0639,-0.0211 -0.0971,-0.047 l -0.13539,-0.0977 -0.32194,-0.22841 10e-4,-0.004 -0.43305,-0.31471 -0.12816,-0.0909 c -0.0343,-0.0244 -0.06,-0.0513 -0.0765,-0.0775 -0.0157,-0.0264 -0.0226,-0.0528 -0.0207,-0.0811 0.007,-0.0616 0.0233,-0.11215 0.0512,-0.15141 l 1.40507,-1.97869 c 0.007,-0.018 0.009,-0.0421 0.0191,-0.0568 l 4.43333,-6.242 0.0139,0.001 0.0165,-0.0238 -2.10426,-3.64422 c -0.0722,-0.125 -0.13163,-0.2228 -0.17934,-0.29249 -0.0492,-0.0619 -0.10199,-0.10372 -0.15761,-0.12712 -0.0576,-0.0154 -0.12829,-0.007 -0.21238,0.0279 -0.084,0.0351 -0.19635,0.093 -0.33692,0.17415 l -0.77361,0.44752 c -0.41667,0.24057 -0.74893,0.44634 -0.99735,0.61753 -0.2536,0.17419 -0.44051,0.36828 -0.55965,0.58291 -0.11917,0.21466 -0.18404,0.47518 -0.19534,0.78031 -0.0113,0.30516 0.0148,0.70993 0.0775,1.21543 l -0.44027,0.13953 c -0.0211,-0.0365 -0.0641,-0.14033 -0.12816,-0.31161 -0.0641,-0.17132 -0.1342,-0.37018 -0.20982,-0.59738 -0.0807,-0.22421 -0.15915,-0.45705 -0.23564,-0.69763 -0.0764,-0.24063 -0.13694,-0.45233 -0.18034,-0.63562 -0.0345,-0.21621 0.0425,-0.37907 0.22995,-0.48731 0.39389,-0.21994 0.88421,-0.49553 1.47021,-0.82786 0.58137,-0.3282 1.2803,-0.72883 2.09804,-1.20096 l 1.2971,-0.74879 c 0.0365,-0.021 0.0706,-0.0331 0.10128,-0.0372 0.008,-9.6e-4 0.0152,-0.001 0.0222,-0.001 z"
       inkscape:export-filename="C:\Users\Jeremy David\Pictures\landatech.png"
       inkscape:export-xdpi="540.07428"
       inkscape:export-ydpi="540.07428" />
  </g>
</svg>
